<mxfile host="app.diagrams.net" agent="Mozilla/5.0 (Windows NT 10.0; Win64; x64) AppleWebKit/537.36 (KHTML, like Gecko) Chrome/131.0.0.0 Safari/537.36" version="25.0.3">
  <diagram name="Страница 1" id="ssbt3cCxLgwBZl8ReIaV">
    <mxGraphModel dx="2150" dy="942" grid="1" gridSize="10" guides="1" tooltips="1" connect="1" arrows="1" fold="1" page="1" pageScale="1" pageWidth="2339" pageHeight="3300" math="0" shadow="0">
      <root>
        <mxCell id="0" />
        <mxCell id="1" parent="0" />
        <mxCell id="u2sWH8MgQMhi1B3s6Ns9-3" style="edgeStyle=orthogonalEdgeStyle;rounded=0;orthogonalLoop=1;jettySize=auto;html=1;entryX=0.5;entryY=0;entryDx=0;entryDy=0;" parent="1" source="u2sWH8MgQMhi1B3s6Ns9-1" target="u2sWH8MgQMhi1B3s6Ns9-2" edge="1">
          <mxGeometry relative="1" as="geometry" />
        </mxCell>
        <mxCell id="u2sWH8MgQMhi1B3s6Ns9-1" value="Начало" style="rounded=1;whiteSpace=wrap;html=1;arcSize=50;" parent="1" vertex="1">
          <mxGeometry x="10" y="20" width="120" height="60" as="geometry" />
        </mxCell>
        <mxCell id="u2sWH8MgQMhi1B3s6Ns9-10" style="edgeStyle=orthogonalEdgeStyle;rounded=0;orthogonalLoop=1;jettySize=auto;html=1;entryX=0.5;entryY=0;entryDx=0;entryDy=0;" parent="1" source="u2sWH8MgQMhi1B3s6Ns9-2" target="u2sWH8MgQMhi1B3s6Ns9-7" edge="1">
          <mxGeometry relative="1" as="geometry" />
        </mxCell>
        <mxCell id="u2sWH8MgQMhi1B3s6Ns9-11" style="edgeStyle=orthogonalEdgeStyle;rounded=0;orthogonalLoop=1;jettySize=auto;html=1;entryX=0.5;entryY=0;entryDx=0;entryDy=0;" parent="1" source="u2sWH8MgQMhi1B3s6Ns9-2" target="u2sWH8MgQMhi1B3s6Ns9-4" edge="1">
          <mxGeometry relative="1" as="geometry" />
        </mxCell>
        <mxCell id="u2sWH8MgQMhi1B3s6Ns9-2" value="Нажата&lt;div&gt;клавиша&lt;/div&gt;&lt;div&gt;Escape&lt;/div&gt;" style="rhombus;whiteSpace=wrap;html=1;" parent="1" vertex="1">
          <mxGeometry x="10" y="120" width="120" height="80" as="geometry" />
        </mxCell>
        <mxCell id="u2sWH8MgQMhi1B3s6Ns9-12" style="edgeStyle=orthogonalEdgeStyle;rounded=0;orthogonalLoop=1;jettySize=auto;html=1;" parent="1" source="u2sWH8MgQMhi1B3s6Ns9-4" edge="1">
          <mxGeometry relative="1" as="geometry">
            <mxPoint x="710" y="1260" as="targetPoint" />
            <Array as="points">
              <mxPoint x="230" y="1260" />
            </Array>
          </mxGeometry>
        </mxCell>
        <mxCell id="u2sWH8MgQMhi1B3s6Ns9-16" style="edgeStyle=orthogonalEdgeStyle;rounded=0;orthogonalLoop=1;jettySize=auto;html=1;entryX=0.5;entryY=0;entryDx=0;entryDy=0;" parent="1" source="u2sWH8MgQMhi1B3s6Ns9-4" target="u2sWH8MgQMhi1B3s6Ns9-15" edge="1">
          <mxGeometry relative="1" as="geometry" />
        </mxCell>
        <mxCell id="u2sWH8MgQMhi1B3s6Ns9-4" value="Гонка&lt;div&gt;завершена&lt;/div&gt;" style="rhombus;whiteSpace=wrap;html=1;" parent="1" vertex="1">
          <mxGeometry x="170" y="240" width="120" height="80" as="geometry" />
        </mxCell>
        <mxCell id="u2sWH8MgQMhi1B3s6Ns9-6" value="Да" style="text;html=1;align=center;verticalAlign=middle;resizable=0;points=[];autosize=1;strokeColor=none;fillColor=none;" parent="1" vertex="1">
          <mxGeometry x="30" y="200" width="40" height="30" as="geometry" />
        </mxCell>
        <mxCell id="XSrGpl_Bx-H96Vo_uqyF-3" style="edgeStyle=orthogonalEdgeStyle;rounded=0;orthogonalLoop=1;jettySize=auto;html=1;" edge="1" parent="1" source="u2sWH8MgQMhi1B3s6Ns9-7">
          <mxGeometry relative="1" as="geometry">
            <mxPoint x="710" y="1280" as="targetPoint" />
            <Array as="points">
              <mxPoint x="70" y="1280" />
              <mxPoint x="630" y="1280" />
            </Array>
          </mxGeometry>
        </mxCell>
        <mxCell id="u2sWH8MgQMhi1B3s6Ns9-7" value="Остановка игры, переход в главное меню" style="rounded=0;whiteSpace=wrap;html=1;" parent="1" vertex="1">
          <mxGeometry x="10" y="240" width="120" height="60" as="geometry" />
        </mxCell>
        <mxCell id="u2sWH8MgQMhi1B3s6Ns9-9" value="Нет" style="text;html=1;align=center;verticalAlign=middle;resizable=0;points=[];autosize=1;strokeColor=none;fillColor=none;" parent="1" vertex="1">
          <mxGeometry x="130" y="130" width="40" height="30" as="geometry" />
        </mxCell>
        <mxCell id="u2sWH8MgQMhi1B3s6Ns9-13" value="Да" style="text;html=1;align=center;verticalAlign=middle;resizable=0;points=[];autosize=1;strokeColor=none;fillColor=none;" parent="1" vertex="1">
          <mxGeometry x="190" y="320" width="40" height="30" as="geometry" />
        </mxCell>
        <mxCell id="u2sWH8MgQMhi1B3s6Ns9-14" value="Нет" style="text;html=1;align=center;verticalAlign=middle;resizable=0;points=[];autosize=1;strokeColor=none;fillColor=none;" parent="1" vertex="1">
          <mxGeometry x="450" y="530" width="40" height="30" as="geometry" />
        </mxCell>
        <mxCell id="u2sWH8MgQMhi1B3s6Ns9-18" style="edgeStyle=orthogonalEdgeStyle;rounded=0;orthogonalLoop=1;jettySize=auto;html=1;entryX=0.5;entryY=0;entryDx=0;entryDy=0;" parent="1" source="u2sWH8MgQMhi1B3s6Ns9-15" target="u2sWH8MgQMhi1B3s6Ns9-17" edge="1">
          <mxGeometry relative="1" as="geometry" />
        </mxCell>
        <mxCell id="u2sWH8MgQMhi1B3s6Ns9-15" value="Расчет скорости, обновление позиции игрока" style="rounded=0;whiteSpace=wrap;html=1;" parent="1" vertex="1">
          <mxGeometry x="330" y="320" width="120" height="60" as="geometry" />
        </mxCell>
        <mxCell id="u2sWH8MgQMhi1B3s6Ns9-20" style="edgeStyle=orthogonalEdgeStyle;rounded=0;orthogonalLoop=1;jettySize=auto;html=1;entryX=0.5;entryY=0;entryDx=0;entryDy=0;" parent="1" source="u2sWH8MgQMhi1B3s6Ns9-17" target="u2sWH8MgQMhi1B3s6Ns9-19" edge="1">
          <mxGeometry relative="1" as="geometry" />
        </mxCell>
        <mxCell id="u2sWH8MgQMhi1B3s6Ns9-17" value="Отрисовка заднего фона" style="rounded=0;whiteSpace=wrap;html=1;" parent="1" vertex="1">
          <mxGeometry x="330" y="420" width="120" height="60" as="geometry" />
        </mxCell>
        <mxCell id="u2sWH8MgQMhi1B3s6Ns9-22" style="edgeStyle=orthogonalEdgeStyle;rounded=0;orthogonalLoop=1;jettySize=auto;html=1;entryX=0.5;entryY=0;entryDx=0;entryDy=0;" parent="1" source="u2sWH8MgQMhi1B3s6Ns9-19" target="u2sWH8MgQMhi1B3s6Ns9-21" edge="1">
          <mxGeometry relative="1" as="geometry" />
        </mxCell>
        <mxCell id="u2sWH8MgQMhi1B3s6Ns9-26" style="edgeStyle=orthogonalEdgeStyle;rounded=0;orthogonalLoop=1;jettySize=auto;html=1;entryX=0.5;entryY=0;entryDx=0;entryDy=0;" parent="1" source="u2sWH8MgQMhi1B3s6Ns9-19" target="u2sWH8MgQMhi1B3s6Ns9-25" edge="1">
          <mxGeometry relative="1" as="geometry" />
        </mxCell>
        <mxCell id="u2sWH8MgQMhi1B3s6Ns9-19" value="&lt;font style=&quot;font-size: 9px;&quot;&gt;Позиция игрока &amp;gt;=&lt;/font&gt;&lt;div&gt;&lt;font style=&quot;font-size: 9px;&quot;&gt;позиции финиша&lt;/font&gt;&lt;/div&gt;" style="rhombus;whiteSpace=wrap;html=1;" parent="1" vertex="1">
          <mxGeometry x="330" y="520" width="120" height="80" as="geometry" />
        </mxCell>
        <mxCell id="u2sWH8MgQMhi1B3s6Ns9-33" style="edgeStyle=orthogonalEdgeStyle;rounded=0;orthogonalLoop=1;jettySize=auto;html=1;" parent="1" source="u2sWH8MgQMhi1B3s6Ns9-21" edge="1">
          <mxGeometry relative="1" as="geometry">
            <mxPoint x="710" y="860" as="targetPoint" />
            <Array as="points">
              <mxPoint x="390" y="860" />
              <mxPoint x="550" y="860" />
            </Array>
          </mxGeometry>
        </mxCell>
        <mxCell id="u2sWH8MgQMhi1B3s6Ns9-21" value="Завершение гонки, добавление времени, вывод текста" style="rounded=0;whiteSpace=wrap;html=1;" parent="1" vertex="1">
          <mxGeometry x="330" y="640" width="120" height="60" as="geometry" />
        </mxCell>
        <mxCell id="u2sWH8MgQMhi1B3s6Ns9-23" value="Да" style="text;html=1;align=center;verticalAlign=middle;resizable=0;points=[];autosize=1;strokeColor=none;fillColor=none;" parent="1" vertex="1">
          <mxGeometry x="350" y="600" width="40" height="30" as="geometry" />
        </mxCell>
        <mxCell id="u2sWH8MgQMhi1B3s6Ns9-24" value="Нет" style="text;html=1;align=center;verticalAlign=middle;resizable=0;points=[];autosize=1;strokeColor=none;fillColor=none;" parent="1" vertex="1">
          <mxGeometry x="290" y="250" width="40" height="30" as="geometry" />
        </mxCell>
        <mxCell id="u2sWH8MgQMhi1B3s6Ns9-28" style="edgeStyle=orthogonalEdgeStyle;rounded=0;orthogonalLoop=1;jettySize=auto;html=1;entryX=0.5;entryY=0;entryDx=0;entryDy=0;" parent="1" source="u2sWH8MgQMhi1B3s6Ns9-25" target="u2sWH8MgQMhi1B3s6Ns9-27" edge="1">
          <mxGeometry relative="1" as="geometry" />
        </mxCell>
        <mxCell id="u2sWH8MgQMhi1B3s6Ns9-31" style="edgeStyle=orthogonalEdgeStyle;rounded=0;orthogonalLoop=1;jettySize=auto;html=1;entryX=0.5;entryY=0;entryDx=0;entryDy=0;" parent="1" source="u2sWH8MgQMhi1B3s6Ns9-25" target="u2sWH8MgQMhi1B3s6Ns9-30" edge="1">
          <mxGeometry relative="1" as="geometry" />
        </mxCell>
        <mxCell id="u2sWH8MgQMhi1B3s6Ns9-25" value="Время заезда&lt;div&gt;&amp;gt;= 10 минут&lt;/div&gt;" style="rhombus;whiteSpace=wrap;html=1;" parent="1" vertex="1">
          <mxGeometry x="490" y="640" width="120" height="80" as="geometry" />
        </mxCell>
        <mxCell id="u2sWH8MgQMhi1B3s6Ns9-32" style="edgeStyle=orthogonalEdgeStyle;rounded=0;orthogonalLoop=1;jettySize=auto;html=1;" parent="1" source="u2sWH8MgQMhi1B3s6Ns9-27" edge="1">
          <mxGeometry relative="1" as="geometry">
            <mxPoint x="710" y="840" as="targetPoint" />
            <Array as="points">
              <mxPoint x="550" y="840" />
              <mxPoint x="710" y="840" />
            </Array>
          </mxGeometry>
        </mxCell>
        <mxCell id="u2sWH8MgQMhi1B3s6Ns9-27" value="Завершение гонки, вывод текста" style="rounded=0;whiteSpace=wrap;html=1;" parent="1" vertex="1">
          <mxGeometry x="490" y="760" width="120" height="60" as="geometry" />
        </mxCell>
        <mxCell id="u2sWH8MgQMhi1B3s6Ns9-29" value="Да" style="text;html=1;align=center;verticalAlign=middle;resizable=0;points=[];autosize=1;strokeColor=none;fillColor=none;" parent="1" vertex="1">
          <mxGeometry x="510" y="720" width="40" height="30" as="geometry" />
        </mxCell>
        <mxCell id="u2sWH8MgQMhi1B3s6Ns9-35" style="edgeStyle=orthogonalEdgeStyle;rounded=0;orthogonalLoop=1;jettySize=auto;html=1;entryX=0.5;entryY=0;entryDx=0;entryDy=0;" parent="1" source="u2sWH8MgQMhi1B3s6Ns9-30" target="u2sWH8MgQMhi1B3s6Ns9-34" edge="1">
          <mxGeometry relative="1" as="geometry" />
        </mxCell>
        <mxCell id="u2sWH8MgQMhi1B3s6Ns9-30" value="Инициализация переменных для отрисовки сегментов трассы" style="rounded=0;whiteSpace=wrap;html=1;" parent="1" vertex="1">
          <mxGeometry x="650" y="880" width="120" height="60" as="geometry" />
        </mxCell>
        <mxCell id="u2sWH8MgQMhi1B3s6Ns9-37" style="edgeStyle=orthogonalEdgeStyle;rounded=0;orthogonalLoop=1;jettySize=auto;html=1;entryX=0.5;entryY=0;entryDx=0;entryDy=0;" parent="1" source="u2sWH8MgQMhi1B3s6Ns9-34" target="u2sWH8MgQMhi1B3s6Ns9-36" edge="1">
          <mxGeometry relative="1" as="geometry" />
        </mxCell>
        <mxCell id="u2sWH8MgQMhi1B3s6Ns9-34" value="Отрисовка каждого сегмента трассы и спрайтов игровых объектов" style="rounded=0;whiteSpace=wrap;html=1;" parent="1" vertex="1">
          <mxGeometry x="650" y="980" width="120" height="60" as="geometry" />
        </mxCell>
        <mxCell id="u2sWH8MgQMhi1B3s6Ns9-39" style="edgeStyle=orthogonalEdgeStyle;rounded=0;orthogonalLoop=1;jettySize=auto;html=1;entryX=0.5;entryY=0;entryDx=0;entryDy=0;" parent="1" source="u2sWH8MgQMhi1B3s6Ns9-36" target="u2sWH8MgQMhi1B3s6Ns9-38" edge="1">
          <mxGeometry relative="1" as="geometry" />
        </mxCell>
        <mxCell id="u2sWH8MgQMhi1B3s6Ns9-36" value="Обработка изменения позиции игрока по горизонтали" style="rounded=0;whiteSpace=wrap;html=1;" parent="1" vertex="1">
          <mxGeometry x="650" y="1080" width="120" height="60" as="geometry" />
        </mxCell>
        <mxCell id="XSrGpl_Bx-H96Vo_uqyF-2" style="edgeStyle=orthogonalEdgeStyle;rounded=0;orthogonalLoop=1;jettySize=auto;html=1;entryX=0.5;entryY=0;entryDx=0;entryDy=0;" edge="1" parent="1" source="u2sWH8MgQMhi1B3s6Ns9-38" target="XSrGpl_Bx-H96Vo_uqyF-1">
          <mxGeometry relative="1" as="geometry" />
        </mxCell>
        <mxCell id="u2sWH8MgQMhi1B3s6Ns9-38" value="&lt;font style=&quot;font-size: 9px;&quot;&gt;Отрисовка спрайта автомобиля, секундомера, спидометра и процента прохождения гонки&lt;/font&gt;" style="rounded=0;whiteSpace=wrap;html=1;" parent="1" vertex="1">
          <mxGeometry x="650" y="1180" width="120" height="60" as="geometry" />
        </mxCell>
        <mxCell id="XSrGpl_Bx-H96Vo_uqyF-1" value="Конец" style="rounded=1;whiteSpace=wrap;html=1;arcSize=50;" vertex="1" parent="1">
          <mxGeometry x="650" y="1300" width="120" height="60" as="geometry" />
        </mxCell>
        <mxCell id="XSrGpl_Bx-H96Vo_uqyF-4" value="1" style="text;html=1;align=center;verticalAlign=middle;resizable=0;points=[];autosize=1;strokeColor=none;fillColor=none;" vertex="1" parent="1">
          <mxGeometry width="30" height="30" as="geometry" />
        </mxCell>
        <mxCell id="XSrGpl_Bx-H96Vo_uqyF-5" value="Нет" style="text;html=1;align=center;verticalAlign=middle;resizable=0;points=[];autosize=1;strokeColor=none;fillColor=none;" vertex="1" parent="1">
          <mxGeometry x="610" y="650" width="40" height="30" as="geometry" />
        </mxCell>
        <mxCell id="XSrGpl_Bx-H96Vo_uqyF-6" value="2" style="text;html=1;align=center;verticalAlign=middle;resizable=0;points=[];autosize=1;strokeColor=none;fillColor=none;" vertex="1" parent="1">
          <mxGeometry y="125" width="30" height="30" as="geometry" />
        </mxCell>
        <mxCell id="XSrGpl_Bx-H96Vo_uqyF-7" value="3" style="text;html=1;align=center;verticalAlign=middle;resizable=0;points=[];autosize=1;strokeColor=none;fillColor=none;" vertex="1" parent="1">
          <mxGeometry y="210" width="30" height="30" as="geometry" />
        </mxCell>
        <mxCell id="XSrGpl_Bx-H96Vo_uqyF-8" value="4" style="text;html=1;align=center;verticalAlign=middle;resizable=0;points=[];autosize=1;strokeColor=none;fillColor=none;" vertex="1" parent="1">
          <mxGeometry x="640" y="1280" width="30" height="30" as="geometry" />
        </mxCell>
        <mxCell id="XSrGpl_Bx-H96Vo_uqyF-9" value="5" style="text;html=1;align=center;verticalAlign=middle;resizable=0;points=[];autosize=1;strokeColor=none;fillColor=none;" vertex="1" parent="1">
          <mxGeometry x="160" y="240" width="30" height="30" as="geometry" />
        </mxCell>
        <mxCell id="XSrGpl_Bx-H96Vo_uqyF-10" value="6" style="text;html=1;align=center;verticalAlign=middle;resizable=0;points=[];autosize=1;strokeColor=none;fillColor=none;" vertex="1" parent="1">
          <mxGeometry x="320" y="290" width="30" height="30" as="geometry" />
        </mxCell>
        <mxCell id="XSrGpl_Bx-H96Vo_uqyF-11" value="7" style="text;html=1;align=center;verticalAlign=middle;resizable=0;points=[];autosize=1;strokeColor=none;fillColor=none;" vertex="1" parent="1">
          <mxGeometry x="320" y="390" width="30" height="30" as="geometry" />
        </mxCell>
        <mxCell id="XSrGpl_Bx-H96Vo_uqyF-12" value="8" style="text;html=1;align=center;verticalAlign=middle;resizable=0;points=[];autosize=1;strokeColor=none;fillColor=none;" vertex="1" parent="1">
          <mxGeometry x="320" y="520" width="30" height="30" as="geometry" />
        </mxCell>
        <mxCell id="XSrGpl_Bx-H96Vo_uqyF-13" value="9" style="text;html=1;align=center;verticalAlign=middle;resizable=0;points=[];autosize=1;strokeColor=none;fillColor=none;" vertex="1" parent="1">
          <mxGeometry x="320" y="610" width="30" height="30" as="geometry" />
        </mxCell>
        <mxCell id="XSrGpl_Bx-H96Vo_uqyF-14" value="10" style="text;html=1;align=center;verticalAlign=middle;resizable=0;points=[];autosize=1;strokeColor=none;fillColor=none;" vertex="1" parent="1">
          <mxGeometry x="475" y="640" width="40" height="30" as="geometry" />
        </mxCell>
        <mxCell id="XSrGpl_Bx-H96Vo_uqyF-15" value="11" style="text;html=1;align=center;verticalAlign=middle;resizable=0;points=[];autosize=1;strokeColor=none;fillColor=none;" vertex="1" parent="1">
          <mxGeometry x="475" y="730" width="40" height="30" as="geometry" />
        </mxCell>
        <mxCell id="XSrGpl_Bx-H96Vo_uqyF-16" value="12" style="text;html=1;align=center;verticalAlign=middle;resizable=0;points=[];autosize=1;strokeColor=none;fillColor=none;" vertex="1" parent="1">
          <mxGeometry x="635" y="852" width="40" height="30" as="geometry" />
        </mxCell>
        <mxCell id="XSrGpl_Bx-H96Vo_uqyF-17" value="13" style="text;html=1;align=center;verticalAlign=middle;resizable=0;points=[];autosize=1;strokeColor=none;fillColor=none;" vertex="1" parent="1">
          <mxGeometry x="635" y="950" width="40" height="30" as="geometry" />
        </mxCell>
        <mxCell id="XSrGpl_Bx-H96Vo_uqyF-18" value="14" style="text;html=1;align=center;verticalAlign=middle;resizable=0;points=[];autosize=1;strokeColor=none;fillColor=none;" vertex="1" parent="1">
          <mxGeometry x="640" y="1050" width="40" height="30" as="geometry" />
        </mxCell>
        <mxCell id="XSrGpl_Bx-H96Vo_uqyF-19" value="15" style="text;html=1;align=center;verticalAlign=middle;resizable=0;points=[];autosize=1;strokeColor=none;fillColor=none;" vertex="1" parent="1">
          <mxGeometry x="640" y="1150" width="40" height="30" as="geometry" />
        </mxCell>
      </root>
    </mxGraphModel>
  </diagram>
</mxfile>
